<svg width="165" height="106" viewBox="0 0 165 106" fill="none" xmlns="http://www.w3.org/2000/svg">
<path d="M3.28355 6.73158C5.097 6.73158 6.5671 5.26149 6.5671 3.44803C6.5671 1.63458 5.097 0.164483 3.28355 0.164483C1.4701 0.164483 0 1.63458 0 3.44803C0 5.26149 1.4701 6.73158 3.28355 6.73158Z" fill="#D8D8D8"/>
<path d="M29.7144 6.73158C31.5279 6.73158 32.998 5.26149 32.998 3.44803C32.998 1.63458 31.5279 0.164483 29.7144 0.164483C27.901 0.164483 26.4309 1.63458 26.4309 3.44803C26.4309 5.26149 27.901 6.73158 29.7144 6.73158Z" fill="#D8D8D8"/>
<path d="M55.9847 6.5671C57.7982 6.5671 59.2683 5.097 59.2683 3.28355C59.2683 1.4701 57.7982 0 55.9847 0C54.1712 0 52.7012 1.4701 52.7012 3.28355C52.7012 5.097 54.1712 6.5671 55.9847 6.5671Z" fill="#D8D8D8"/>
<path d="M82.4156 6.89509C84.229 6.89509 85.6991 5.42499 85.6991 3.61154C85.6991 1.79808 84.229 0.327987 82.4156 0.327987C80.6021 0.327987 79.132 1.79808 79.132 3.61154C79.132 5.42499 80.6021 6.89509 82.4156 6.89509Z" fill="#D8D8D8"/>
<path d="M108.686 6.89509C110.499 6.89509 111.969 5.42499 111.969 3.61154C111.969 1.79808 110.499 0.327987 108.686 0.327987C106.872 0.327987 105.402 1.79808 105.402 3.61154C105.402 5.42499 106.872 6.89509 108.686 6.89509Z" fill="#D8D8D8"/>
<path d="M135.117 6.73158C136.93 6.73158 138.4 5.26149 138.4 3.44803C138.4 1.63458 136.93 0.164483 135.117 0.164483C133.303 0.164483 131.833 1.63458 131.833 3.44803C131.833 5.26149 133.303 6.73158 135.117 6.73158Z" fill="#D8D8D8"/>
<path d="M161.387 6.5671C163.2 6.5671 164.671 5.097 164.671 3.28355C164.671 1.4701 163.2 0 161.387 0C159.574 0 158.103 1.4701 158.103 3.28355C158.103 5.097 159.574 6.5671 161.387 6.5671Z" fill="#D8D8D8"/>
<path d="M3.28355 22.6561C5.097 22.6561 6.5671 21.186 6.5671 19.3725C6.5671 17.5591 5.097 16.089 3.28355 16.089C1.4701 16.089 0 17.5591 0 19.3725C0 21.186 1.4701 22.6561 3.28355 22.6561Z" fill="#D8D8D8"/>
<path d="M29.7144 22.6561C31.5279 22.6561 32.998 21.186 32.998 19.3725C32.998 17.5591 31.5279 16.089 29.7144 16.089C27.901 16.089 26.4309 17.5591 26.4309 19.3725C26.4309 21.186 27.901 22.6561 29.7144 22.6561Z" fill="#D8D8D8"/>
<path d="M55.9847 22.4926C57.7982 22.4926 59.2683 21.0225 59.2683 19.209C59.2683 17.3956 57.7982 15.9255 55.9847 15.9255C54.1712 15.9255 52.7012 17.3956 52.7012 19.209C52.7012 21.0225 54.1712 22.4926 55.9847 22.4926Z" fill="#D8D8D8"/>
<path d="M82.4156 22.8206C84.229 22.8206 85.6991 21.3505 85.6991 19.537C85.6991 17.7236 84.229 16.2535 82.4156 16.2535C80.6021 16.2535 79.132 17.7236 79.132 19.537C79.132 21.3505 80.6021 22.8206 82.4156 22.8206Z" fill="#D8D8D8"/>
<path d="M108.686 22.8206C110.499 22.8206 111.969 21.3505 111.969 19.537C111.969 17.7236 110.499 16.2535 108.686 16.2535C106.872 16.2535 105.402 17.7236 105.402 19.537C105.402 21.3505 106.872 22.8206 108.686 22.8206Z" fill="#D8D8D8"/>
<path d="M135.117 22.6561C136.93 22.6561 138.4 21.186 138.4 19.3725C138.4 17.5591 136.93 16.089 135.117 16.089C133.303 16.089 131.833 17.5591 131.833 19.3725C131.833 21.186 133.303 22.6561 135.117 22.6561Z" fill="#D8D8D8"/>
<path d="M161.387 22.4926C163.2 22.4926 164.671 21.0225 164.671 19.209C164.671 17.3956 163.2 15.9255 161.387 15.9255C159.574 15.9255 158.103 17.3956 158.103 19.209C158.103 21.0225 159.574 22.4926 161.387 22.4926Z" fill="#D8D8D8"/>
<path d="M3.44803 38.9096C5.26149 38.9096 6.73158 37.4395 6.73158 35.626C6.73158 33.8126 5.26149 32.3425 3.44803 32.3425C1.63458 32.3425 0.164483 33.8126 0.164483 35.626C0.164483 37.4395 1.63458 38.9096 3.44803 38.9096Z" fill="#D8D8D8"/>
<path d="M29.8789 38.9096C31.6923 38.9096 33.1624 37.4395 33.1624 35.626C33.1624 33.8126 31.6923 32.3425 29.8789 32.3425C28.0654 32.3425 26.5953 33.8126 26.5953 35.626C26.5953 37.4395 28.0654 38.9096 29.8789 38.9096Z" fill="#D8D8D8"/>
<path d="M56.1492 38.7458C57.9626 38.7458 59.4327 37.2757 59.4327 35.4623C59.4327 33.6488 57.9626 32.1787 56.1492 32.1787C54.3357 32.1787 52.8656 33.6488 52.8656 35.4623C52.8656 37.2757 54.3357 38.7458 56.1492 38.7458Z" fill="#D8D8D8"/>
<path d="M82.58 39.074C84.3935 39.074 85.8636 37.6039 85.8636 35.7905C85.8636 33.977 84.3935 32.5069 82.58 32.5069C80.7666 32.5069 79.2965 33.977 79.2965 35.7905C79.2965 37.6039 80.7666 39.074 82.58 39.074Z" fill="#D8D8D8"/>
<path d="M108.85 39.074C110.664 39.074 112.134 37.6039 112.134 35.7905C112.134 33.977 110.664 32.5069 108.85 32.5069C107.037 32.5069 105.567 33.977 105.567 35.7905C105.567 37.6039 107.037 39.074 108.85 39.074Z" fill="#D8D8D8"/>
<path d="M135.281 38.9096C137.095 38.9096 138.565 37.4395 138.565 35.626C138.565 33.8126 137.095 32.3425 135.281 32.3425C133.468 32.3425 131.998 33.8126 131.998 35.626C131.998 37.4395 133.468 38.9096 135.281 38.9096Z" fill="#D8D8D8"/>
<path d="M161.551 38.7461C163.365 38.7461 164.835 37.276 164.835 35.4625C164.835 33.6491 163.365 32.179 161.551 32.179C159.738 32.179 158.268 33.6491 158.268 35.4625C158.268 37.276 159.738 38.7461 161.551 38.7461Z" fill="#D8D8D8"/>
<path d="M3.61252 55.492C5.42597 55.492 6.89607 54.0219 6.89607 52.2084C6.89607 50.395 5.42597 48.9249 3.61252 48.9249C1.79906 48.9249 0.328966 50.395 0.328966 52.2084C0.328966 54.0219 1.79906 55.492 3.61252 55.492Z" fill="#D8D8D8"/>
<path d="M30.0434 55.492C31.8568 55.492 33.3269 54.0219 33.3269 52.2084C33.3269 50.395 31.8568 48.9249 30.0434 48.9249C28.2299 48.9249 26.7598 50.395 26.7598 52.2084C26.7598 54.0219 28.2299 55.492 30.0434 55.492Z" fill="#D8D8D8"/>
<path d="M56.3137 55.3275C58.1271 55.3275 59.5972 53.8574 59.5972 52.044C59.5972 50.2305 58.1271 48.7604 56.3137 48.7604C54.5002 48.7604 53.0301 50.2305 53.0301 52.044C53.0301 53.8574 54.5002 55.3275 56.3137 55.3275Z" fill="#D8D8D8"/>
<path d="M82.7445 55.6565C84.558 55.6565 86.0281 54.1864 86.0281 52.3729C86.0281 50.5595 84.558 49.0894 82.7445 49.0894C80.9311 49.0894 79.461 50.5595 79.461 52.3729C79.461 54.1864 80.9311 55.6565 82.7445 55.6565Z" fill="#D8D8D8"/>
<path d="M109.015 55.6565C110.828 55.6565 112.298 54.1864 112.298 52.3729C112.298 50.5595 110.828 49.0894 109.015 49.0894C107.201 49.0894 105.731 50.5595 105.731 52.3729C105.731 54.1864 107.201 55.6565 109.015 55.6565Z" fill="#D8D8D8"/>
<path d="M135.446 55.492C137.259 55.492 138.729 54.0219 138.729 52.2084C138.729 50.395 137.259 48.9249 135.446 48.9249C133.632 48.9249 132.162 50.395 132.162 52.2084C132.162 54.0219 133.632 55.492 135.446 55.492Z" fill="#D8D8D8"/>
<path d="M161.716 55.3275C163.529 55.3275 165 53.8574 165 52.044C165 50.2305 163.529 48.7604 161.716 48.7604C159.903 48.7604 158.432 50.2305 158.432 52.044C158.432 53.8574 159.903 55.3275 161.716 55.3275Z" fill="#D8D8D8"/>
<path d="M3.28355 72.4022C5.097 72.4022 6.5671 70.9321 6.5671 69.1186C6.5671 67.3052 5.097 65.8351 3.28355 65.8351C1.4701 65.8351 0 67.3052 0 69.1186C0 70.9321 1.4701 72.4022 3.28355 72.4022Z" fill="#D8D8D8"/>
<path d="M29.7144 72.4024C31.5279 72.4024 32.998 70.9323 32.998 69.1189C32.998 67.3054 31.5279 65.8353 29.7144 65.8353C27.901 65.8353 26.4309 67.3054 26.4309 69.1189C26.4309 70.9323 27.901 72.4024 29.7144 72.4024Z" fill="#D8D8D8"/>
<path d="M55.9847 72.2382C57.7982 72.2382 59.2683 70.7681 59.2683 68.9546C59.2683 67.1412 57.7982 65.6711 55.9847 65.6711C54.1712 65.6711 52.7012 67.1412 52.7012 68.9546C52.7012 70.7681 54.1712 72.2382 55.9847 72.2382Z" fill="#D8D8D8"/>
<path d="M82.4156 72.5659C84.229 72.5659 85.6991 71.0958 85.6991 69.2824C85.6991 67.4689 84.229 65.9988 82.4156 65.9988C80.6021 65.9988 79.132 67.4689 79.132 69.2824C79.132 71.0958 80.6021 72.5659 82.4156 72.5659Z" fill="#D8D8D8"/>
<path d="M108.686 72.5659C110.499 72.5659 111.969 71.0958 111.969 69.2824C111.969 67.4689 110.499 65.9988 108.686 65.9988C106.872 65.9988 105.402 67.4689 105.402 69.2824C105.402 71.0958 106.872 72.5659 108.686 72.5659Z" fill="#D8D8D8"/>
<path d="M135.117 72.4024C136.93 72.4024 138.4 70.9323 138.4 69.1189C138.4 67.3054 136.93 65.8353 135.117 65.8353C133.303 65.8353 131.833 67.3054 131.833 69.1189C131.833 70.9323 133.303 72.4024 135.117 72.4024Z" fill="#D8D8D8"/>
<path d="M161.387 72.2379C163.2 72.2379 164.671 70.7678 164.671 68.9544C164.671 67.1409 163.2 65.6708 161.387 65.6708C159.574 65.6708 158.103 67.1409 158.103 68.9544C158.103 70.7678 159.574 72.2379 161.387 72.2379Z" fill="#D8D8D8"/>
<path d="M3.28355 88.9839C5.097 88.9839 6.5671 87.5138 6.5671 85.7003C6.5671 83.8869 5.097 82.4168 3.28355 82.4168C1.4701 82.4168 0 83.8869 0 85.7003C0 87.5138 1.4701 88.9839 3.28355 88.9839Z" fill="#D8D8D8"/>
<path d="M29.7144 88.9839C31.5279 88.9839 32.998 87.5138 32.998 85.7003C32.998 83.8869 31.5279 82.4168 29.7144 82.4168C27.901 82.4168 26.4309 83.8869 26.4309 85.7003C26.4309 87.5138 27.901 88.9839 29.7144 88.9839Z" fill="#D8D8D8"/>
<path d="M55.9847 88.8204C57.7982 88.8204 59.2683 87.3503 59.2683 85.5368C59.2683 83.7234 57.7982 82.2533 55.9847 82.2533C54.1712 82.2533 52.7012 83.7234 52.7012 85.5368C52.7012 87.3503 54.1712 88.8204 55.9847 88.8204Z" fill="#D8D8D8"/>
<path d="M82.4156 89.1484C84.229 89.1484 85.6991 87.6783 85.6991 85.8648C85.6991 84.0514 84.229 82.5813 82.4156 82.5813C80.6021 82.5813 79.132 84.0514 79.132 85.8648C79.132 87.6783 80.6021 89.1484 82.4156 89.1484Z" fill="#D8D8D8"/>
<path d="M108.686 89.1484C110.499 89.1484 111.969 87.6783 111.969 85.8648C111.969 84.0514 110.499 82.5813 108.686 82.5813C106.872 82.5813 105.402 84.0514 105.402 85.8648C105.402 87.6783 106.872 89.1484 108.686 89.1484Z" fill="#D8D8D8"/>
<path d="M135.117 88.9839C136.93 88.9839 138.4 87.5138 138.4 85.7003C138.4 83.8869 136.93 82.4168 135.117 82.4168C133.303 82.4168 131.833 83.8869 131.833 85.7003C131.833 87.5138 133.303 88.9839 135.117 88.9839Z" fill="#D8D8D8"/>
<path d="M161.387 88.8204C163.2 88.8204 164.671 87.3503 164.671 85.5368C164.671 83.7234 163.2 82.2533 161.387 82.2533C159.574 82.2533 158.103 83.7234 158.103 85.5368C158.103 87.3503 159.574 88.8204 161.387 88.8204Z" fill="#D8D8D8"/>
<path d="M3.28355 105.566C5.097 105.566 6.5671 104.096 6.5671 102.283C6.5671 100.469 5.097 98.999 3.28355 98.999C1.4701 98.999 0 100.469 0 102.283C0 104.096 1.4701 105.566 3.28355 105.566Z" fill="#D8D8D8"/>
<path d="M29.7144 105.566C31.5279 105.566 32.998 104.096 32.998 102.283C32.998 100.469 31.5279 98.9992 29.7144 98.9992C27.901 98.9992 26.4309 100.469 26.4309 102.283C26.4309 104.096 27.901 105.566 29.7144 105.566Z" fill="#D8D8D8"/>
<path d="M55.9847 105.402C57.7982 105.402 59.2683 103.932 59.2683 102.119C59.2683 100.305 57.7982 98.835 55.9847 98.835C54.1712 98.835 52.7012 100.305 52.7012 102.119C52.7012 103.932 54.1712 105.402 55.9847 105.402Z" fill="#D8D8D8"/>
<path d="M82.4156 105.731C84.229 105.731 85.6991 104.261 85.6991 102.447C85.6991 100.634 84.229 99.1637 82.4156 99.1637C80.6021 99.1637 79.132 100.634 79.132 102.447C79.132 104.261 80.6021 105.731 82.4156 105.731Z" fill="#D8D8D8"/>
<path d="M108.686 105.731C110.499 105.731 111.969 104.261 111.969 102.447C111.969 100.634 110.499 99.1637 108.686 99.1637C106.872 99.1637 105.402 100.634 105.402 102.447C105.402 104.261 106.872 105.731 108.686 105.731Z" fill="#D8D8D8"/>
<path d="M135.117 105.566C136.93 105.566 138.4 104.096 138.4 102.283C138.4 100.469 136.93 98.9992 135.117 98.9992C133.303 98.9992 131.833 100.469 131.833 102.283C131.833 104.096 133.303 105.566 135.117 105.566Z" fill="#D8D8D8"/>
<path d="M161.387 105.402C163.2 105.402 164.671 103.932 164.671 102.118C164.671 100.305 163.2 98.8347 161.387 98.8347C159.574 98.8347 158.103 100.305 158.103 102.118C158.103 103.932 159.574 105.402 161.387 105.402Z" fill="#D8D8D8"/>
</svg>
