<svg width="112" height="112" viewBox="0 0 112 112" fill="none" xmlns="http://www.w3.org/2000/svg">
<rect width="112" height="112" rx="56" fill="#3E6EB4"/>
<path d="M67.5528 73.0535H44.4468C41.4138 73.0535 38.9468 70.5855 38.9468 67.5535V44.4485C38.9468 41.4165 41.4138 38.9485 44.4468 38.9485H67.5528C70.5858 38.9485 73.0528 41.4165 73.0528 44.4485V67.5535C73.0528 70.5855 70.5858 73.0535 67.5528 73.0535ZM44.4468 41.9485C43.0688 41.9485 41.9468 43.0695 41.9468 44.4485V67.5535C41.9468 68.9325 43.0688 70.0535 44.4468 70.0535H67.5528C68.9308 70.0535 70.0528 68.9325 70.0528 67.5535V44.4485C70.0528 43.0695 68.9308 41.9485 67.5528 41.9485H44.4468Z" fill="white"/>
<path d="M56.0059 41.9474C55.1769 41.9474 54.5059 41.2754 54.5059 40.4474V34.7024C54.5059 33.8744 55.1769 33.2024 56.0059 33.2024C56.8349 33.2024 57.5059 33.8744 57.5059 34.7024V40.4474C57.5059 41.2754 56.8349 41.9474 56.0059 41.9474Z" fill="white"/>
<path d="M56.0058 36.2025C53.6068 36.2025 51.6548 34.2505 51.6548 31.8505C51.6548 29.4505 53.6068 27.4995 56.0058 27.4995C58.4048 27.4995 60.3568 29.4515 60.3568 31.8505C60.3568 34.2495 58.4048 36.2025 56.0058 36.2025ZM56.0058 30.5005C55.2608 30.5005 54.6548 31.1055 54.6548 31.8515C54.6548 32.5975 55.2608 33.2035 56.0058 33.2035C56.7508 33.2035 57.3568 32.5975 57.3568 31.8515C57.3568 31.1055 56.7508 30.5005 56.0058 30.5005Z" fill="white"/>
<path d="M40.4471 57.4946H34.7021C33.8731 57.4946 33.2021 56.8226 33.2021 55.9946C33.2021 55.1666 33.8731 54.4946 34.7021 54.4946H40.4471C41.2761 54.4946 41.9471 55.1666 41.9471 55.9946C41.9471 56.8226 41.2761 57.4946 40.4471 57.4946Z" fill="white"/>
<path d="M31.851 60.3456C29.452 60.3456 27.5 58.3936 27.5 55.9946C27.5 53.5956 29.452 51.6426 31.851 51.6426C34.25 51.6426 36.202 53.5946 36.202 55.9946C36.202 58.3946 34.25 60.3456 31.851 60.3456ZM31.851 54.6436C31.106 54.6436 30.5 55.2496 30.5 55.9956C30.5 56.7416 31.106 57.3466 31.851 57.3466C32.596 57.3466 33.202 56.7416 33.202 55.9956C33.202 55.2496 32.596 54.6436 31.851 54.6436Z" fill="white"/>
<path d="M77.2982 57.5066H71.5532C70.7242 57.5066 70.0532 56.8346 70.0532 56.0066C70.0532 55.1786 70.7242 54.5066 71.5532 54.5066H77.2982C78.1272 54.5066 78.7982 55.1786 78.7982 56.0066C78.7982 56.8346 78.1272 57.5066 77.2982 57.5066Z" fill="white"/>
<path d="M80.1493 60.3575C77.7503 60.3575 75.7983 58.4055 75.7983 56.0055C75.7983 53.6055 77.7503 51.6545 80.1493 51.6545C82.5483 51.6545 84.5003 53.6065 84.5003 56.0055C84.5003 58.4045 82.5483 60.3575 80.1493 60.3575ZM80.1493 54.6555C79.4043 54.6555 78.7983 55.2605 78.7983 56.0065C78.7983 56.7525 79.4043 57.3585 80.1493 57.3585C80.8943 57.3585 81.5003 56.7525 81.5003 56.0065C81.5003 55.2605 80.8943 54.6555 80.1493 54.6555Z" fill="white"/>
<path d="M55.9941 78.7985C55.1651 78.7985 54.4941 78.1265 54.4941 77.2985V71.5535C54.4941 70.7255 55.1651 70.0535 55.9941 70.0535C56.8231 70.0535 57.4941 70.7255 57.4941 71.5535V77.2985C57.4941 78.1265 56.8231 78.7985 55.9941 78.7985Z" fill="white"/>
<path d="M55.9941 84.5004C53.5951 84.5004 51.6431 82.5484 51.6431 80.1494C51.6431 77.7504 53.5951 75.7974 55.9941 75.7974C58.3931 75.7974 60.3451 77.7494 60.3451 80.1494C60.3451 82.5494 58.3931 84.5004 55.9941 84.5004ZM55.9941 78.7984C55.2491 78.7984 54.6431 79.4044 54.6431 80.1504C54.6431 80.8964 55.2491 81.5014 55.9941 81.5014C56.7391 81.5014 57.3451 80.8964 57.3451 80.1504C57.3451 79.4044 56.7391 78.7984 55.9941 78.7984Z" fill="white"/>
<path d="M65.0898 41.9505C64.2608 41.9505 63.5898 41.2785 63.5898 40.4505V32.0005C63.5898 31.1725 64.2608 30.5005 65.0898 30.5005H69.2658C70.0948 30.5005 70.7658 31.1725 70.7658 32.0005C70.7658 32.8285 70.0948 33.5005 69.2658 33.5005H66.5898V40.4505C66.5898 41.2785 65.9188 41.9505 65.0898 41.9505Z" fill="white"/>
<path d="M79.9998 48.4105H71.5498C70.7208 48.4105 70.0498 47.7385 70.0498 46.9105C70.0498 46.0825 70.7208 45.4105 71.5498 45.4105H78.4998V42.7415C78.4998 41.9135 79.1708 41.2415 79.9998 41.2415C80.8288 41.2415 81.4998 41.9135 81.4998 42.7415V46.9105C81.4998 47.7385 80.8288 48.4105 79.9998 48.4105Z" fill="white"/>
<path d="M79.9998 70.7666C79.1708 70.7666 78.4998 70.0946 78.4998 69.2666V66.5906H71.5498C70.7208 66.5906 70.0498 65.9186 70.0498 65.0906C70.0498 64.2626 70.7208 63.5906 71.5498 63.5906H79.9998C80.8288 63.5906 81.4998 64.2626 81.4998 65.0906V69.2666C81.4998 70.0946 80.8288 70.7666 79.9998 70.7666Z" fill="white"/>
<path d="M69.2578 81.5005H65.0898C64.2608 81.5005 63.5898 80.8285 63.5898 80.0005V71.5505C63.5898 70.7225 64.2608 70.0505 65.0898 70.0505C65.9188 70.0505 66.5898 70.7225 66.5898 71.5505V78.5005H69.2578C70.0868 78.5005 70.7578 79.1725 70.7578 80.0005C70.7578 80.8285 70.0868 81.5005 69.2578 81.5005Z" fill="white"/>
<path d="M46.9099 81.5005H42.7339C41.9049 81.5005 41.2339 80.8285 41.2339 80.0005C41.2339 79.1725 41.9049 78.5005 42.7339 78.5005H45.4099V71.5505C45.4099 70.7225 46.0809 70.0505 46.9099 70.0505C47.7389 70.0505 48.4099 70.7225 48.4099 71.5505V80.0005C48.4099 80.8285 47.7389 81.5005 46.9099 81.5005Z" fill="white"/>
<path d="M32 70.7596C31.171 70.7596 30.5 70.0876 30.5 69.2596V65.0906C30.5 64.2626 31.171 63.5906 32 63.5906H40.45C41.279 63.5906 41.95 64.2626 41.95 65.0906C41.95 65.9186 41.279 66.5906 40.45 66.5906H33.5V69.2596C33.5 70.0876 32.829 70.7596 32 70.7596Z" fill="white"/>
<path d="M40.45 48.4104H32C31.171 48.4104 30.5 47.7384 30.5 46.9104V42.7344C30.5 41.9064 31.171 41.2344 32 41.2344C32.829 41.2344 33.5 41.9064 33.5 42.7344V45.4104H40.45C41.279 45.4104 41.95 46.0824 41.95 46.9104C41.95 47.7384 41.279 48.4104 40.45 48.4104Z" fill="white"/>
<path d="M46.9102 41.9505C46.0812 41.9505 45.4102 41.2785 45.4102 40.4505V33.5005H42.7422C41.9132 33.5005 41.2422 32.8285 41.2422 32.0005C41.2422 31.1725 41.9132 30.5005 42.7422 30.5005H46.9102C47.7392 30.5005 48.4102 31.1725 48.4102 32.0005V40.4505C48.4102 41.2785 47.7392 41.9505 46.9102 41.9505Z" fill="white"/>
<path fill-rule="evenodd" clip-rule="evenodd" d="M54.9641 54.7692C55.3685 54.7692 55.748 54.8762 56.0757 55.0634L59.8082 51.3309C59.8647 51.2744 59.8867 51.1994 59.8699 51.1215L59.4463 49.1556C59.4294 49.0776 59.4515 49.0027 59.5079 48.9462L62.8873 45.5668C63.0155 45.4387 63.2336 45.5029 63.2717 45.6801L63.7676 47.9809C63.7879 48.0752 63.9243 48.2116 64.0186 48.2318L66.3194 48.7277C66.4966 48.7659 66.5609 48.9839 66.4327 49.1121L63.0533 52.4916C62.9969 52.548 62.9219 52.5701 62.8439 52.5533L60.8781 52.1296C60.8001 52.1128 60.7251 52.1348 60.6687 52.1913L56.93 55.93C57.1075 56.2513 57.2087 56.6208 57.2087 57.0139C57.2087 58.2536 56.2037 59.2585 54.9641 59.2585C53.7244 59.2585 52.7194 58.2535 52.7194 57.0139C52.7195 55.7742 53.7245 54.7692 54.9641 54.7692ZM57.7904 51.6278C53.8005 49.5295 48.8824 52.4019 48.8824 57.0139C48.8824 60.3727 51.6053 63.0956 54.9641 63.0956C59.5618 63.0956 62.4359 58.2051 60.3651 54.2159L58.7105 55.8704C59.4704 58.3633 57.6112 60.93 54.9641 60.93C52.8013 60.93 51.048 59.1767 51.048 57.0139C51.048 54.3521 53.6418 52.4914 56.1406 53.2776L57.7904 51.6278ZM58.5144 48.2388C52.3691 45.7498 45.5 50.253 45.5 57.0139C45.5 62.2408 49.7372 66.478 54.9641 66.478C61.7113 66.478 66.2146 59.6343 63.7509 53.4925C63.0442 54.0162 62.1416 53.6467 61.3488 53.4758C64.0094 58.2667 60.5741 64.3124 54.9641 64.3124C50.9332 64.3124 47.6655 61.0446 47.6655 57.0138C47.6655 51.3941 53.7306 47.9599 58.5214 50.6398L58.2567 49.4119C58.1674 48.9971 58.2634 48.5715 58.5144 48.2388Z" fill="white"/>
</svg>
