<svg width="112" height="112" viewBox="0 0 112 112" fill="none" xmlns="http://www.w3.org/2000/svg">
<rect width="112" height="112" rx="56" fill="#3E6EB4"/>
<path d="M66.1313 70.9592H45.8639C43.2035 70.9592 41.0396 68.7943 41.0396 66.1346V45.867C41.0396 43.2074 43.2035 41.0425 45.8639 41.0425H66.1313C68.7917 41.0425 70.9556 43.2074 70.9556 45.867V66.1346C70.9556 68.7943 68.7917 70.9592 66.1313 70.9592ZM45.8639 43.6741C44.6552 43.6741 43.671 44.6574 43.671 45.867V66.1346C43.671 67.3443 44.6552 68.3276 45.8639 68.3276H66.1313C67.34 68.3276 68.3242 67.3443 68.3242 66.1346V45.867C68.3242 44.6574 67.34 43.6741 66.1313 43.6741H45.8639Z" fill="white"/>
<path d="M56.0076 43.673C55.2805 43.673 54.6919 43.0835 54.6919 42.3572V37.3177C54.6919 36.5914 55.2805 36.002 56.0076 36.002C56.7348 36.002 57.3233 36.5914 57.3233 37.3177V42.3572C57.3233 43.0835 56.7348 43.673 56.0076 43.673Z" fill="white"/>
<path d="M56.0069 38.6337C53.9026 38.6337 52.1904 36.9214 52.1904 34.8162C52.1904 32.7109 53.9026 30.9995 56.0069 30.9995C58.1112 30.9995 59.8234 32.7118 59.8234 34.8162C59.8234 36.9206 58.1112 38.6337 56.0069 38.6337ZM56.0069 33.632C55.3534 33.632 54.8219 34.1627 54.8219 34.8171C54.8219 35.4714 55.3534 36.003 56.0069 36.003C56.6604 36.003 57.1919 35.4714 57.1919 34.8171C57.1919 34.1627 56.6604 33.632 56.0069 33.632Z" fill="white"/>
<path d="M42.3579 57.311H37.3187C36.5915 57.311 36.0029 56.7215 36.0029 55.9952C36.0029 55.2689 36.5915 54.6794 37.3187 54.6794H42.3579C43.085 54.6794 43.6736 55.2689 43.6736 55.9952C43.6736 56.7215 43.085 57.311 42.3579 57.311Z" fill="white"/>
<path d="M34.817 59.812C32.7127 59.812 31.0005 58.0997 31.0005 55.9953C31.0005 53.8909 32.7127 52.1777 34.817 52.1777C36.9213 52.1777 38.6334 53.89 38.6334 55.9953C38.6334 58.1005 36.9213 59.812 34.817 59.812ZM34.817 54.8102C34.1635 54.8102 33.6319 55.3418 33.6319 55.9962C33.6319 56.6505 34.1635 57.1812 34.817 57.1812C35.4704 57.1812 36.002 56.6505 36.002 55.9962C36.002 55.3418 35.4704 54.8102 34.817 54.8102Z" fill="white"/>
<path d="M74.6811 57.3213H69.6419C68.9147 57.3213 68.3262 56.7318 68.3262 56.0055C68.3262 55.2792 68.9147 54.6897 69.6419 54.6897H74.6811C75.4083 54.6897 75.9968 55.2792 75.9968 56.0055C75.9968 56.7318 75.4083 57.3213 74.6811 57.3213Z" fill="white"/>
<path d="M77.1827 59.8222C75.0784 59.8222 73.3662 58.1099 73.3662 56.0047C73.3662 53.8994 75.0784 52.188 77.1827 52.188C79.287 52.188 80.9992 53.9003 80.9992 56.0047C80.9992 58.109 79.287 59.8222 77.1827 59.8222ZM77.1827 54.8204C76.5292 54.8204 75.9977 55.3511 75.9977 56.0055C75.9977 56.6599 76.5292 57.1915 77.1827 57.1915C77.8362 57.1915 78.3677 56.6599 78.3677 56.0055C78.3677 55.3511 77.8362 54.8204 77.1827 54.8204Z" fill="white"/>
<path d="M55.9949 75.9984C55.2678 75.9984 54.6792 75.409 54.6792 74.6827V69.6432C54.6792 68.9169 55.2678 68.3274 55.9949 68.3274C56.7221 68.3274 57.3106 68.9169 57.3106 69.6432V74.6827C57.3106 75.409 56.7221 75.9984 55.9949 75.9984Z" fill="white"/>
<path d="M55.9942 81.0002C53.8899 81.0002 52.1777 79.2879 52.1777 77.1835C52.1777 75.0791 53.8899 73.366 55.9942 73.366C58.0985 73.366 59.8107 75.0782 59.8107 77.1835C59.8107 79.2888 58.0985 81.0002 55.9942 81.0002ZM55.9942 75.9984C55.3407 75.9984 54.8092 76.53 54.8092 77.1844C54.8092 77.8388 55.3407 78.3695 55.9942 78.3695C56.6477 78.3695 57.1792 77.8388 57.1792 77.1844C57.1792 76.53 56.6477 75.9984 55.9942 75.9984Z" fill="white"/>
<path d="M63.9725 43.6757C63.2453 43.6757 62.6567 43.0862 62.6567 42.3599V34.9476C62.6567 34.2213 63.2453 33.6318 63.9725 33.6318H67.6354C68.3626 33.6318 68.9512 34.2213 68.9512 34.9476C68.9512 35.6739 68.3626 36.2634 67.6354 36.2634H65.2882V42.3599C65.2882 43.0862 64.6996 43.6757 63.9725 43.6757Z" fill="white"/>
<path d="M77.0514 49.3423H69.6395C68.9123 49.3423 68.3237 48.7528 68.3237 48.0265C68.3237 47.3002 68.9123 46.7107 69.6395 46.7107H75.7357V44.3695C75.7357 43.6432 76.3242 43.0537 77.0514 43.0537C77.7785 43.0537 78.3671 43.6432 78.3671 44.3695V48.0265C78.3671 48.7528 77.7785 49.3423 77.0514 49.3423Z" fill="white"/>
<path d="M77.0514 68.9532C76.3242 68.9532 75.7357 68.3637 75.7357 67.6374V65.29H69.6395C68.9123 65.29 68.3237 64.7006 68.3237 63.9742C68.3237 63.2479 68.9123 62.6584 69.6395 62.6584H77.0514C77.7785 62.6584 78.3671 63.2479 78.3671 63.9742V67.6374C78.3671 68.3637 77.7785 68.9532 77.0514 68.9532Z" fill="white"/>
<path d="M67.6284 78.3688H63.9725C63.2453 78.3688 62.6567 77.7793 62.6567 77.053V69.6407C62.6567 68.9144 63.2453 68.325 63.9725 68.325C64.6996 68.325 65.2882 68.9144 65.2882 69.6407V75.7372H67.6284C68.3556 75.7372 68.9441 76.3267 68.9441 77.053C68.9441 77.7793 68.3556 78.3688 67.6284 78.3688Z" fill="white"/>
<path d="M48.0246 78.3688H44.3616C43.6345 78.3688 43.0459 77.7793 43.0459 77.053C43.0459 76.3267 43.6345 75.7372 44.3616 75.7372H46.7089V69.6407C46.7089 68.9144 47.2974 68.325 48.0246 68.325C48.7518 68.325 49.3403 68.9144 49.3403 69.6407V77.053C49.3403 77.7793 48.7518 78.3688 48.0246 78.3688Z" fill="white"/>
<path d="M34.9461 68.9468C34.2189 68.9468 33.6304 68.3573 33.6304 67.631V63.974C33.6304 63.2477 34.2189 62.6582 34.9461 62.6582H42.358C43.0852 62.6582 43.6737 63.2477 43.6737 63.974C43.6737 64.7003 43.0852 65.2898 42.358 65.2898H36.2618V67.631C36.2618 68.3573 35.6733 68.9468 34.9461 68.9468Z" fill="white"/>
<path d="M42.358 49.3423H34.9461C34.2189 49.3423 33.6304 48.7529 33.6304 48.0266V44.3634C33.6304 43.6371 34.2189 43.0476 34.9461 43.0476C35.6733 43.0476 36.2618 43.6371 36.2618 44.3634V46.7108H42.358C43.0852 46.7108 43.6737 47.3002 43.6737 48.0266C43.6737 48.7529 43.0852 49.3423 42.358 49.3423Z" fill="white"/>
<path d="M48.0244 43.6757C47.2973 43.6757 46.7087 43.0862 46.7087 42.3599V36.2634H44.3685C43.6413 36.2634 43.0527 35.6739 43.0527 34.9476C43.0527 34.2213 43.6413 33.6318 44.3685 33.6318H48.0244C48.7516 33.6318 49.3401 34.2213 49.3401 34.9476V42.3599C49.3401 43.0862 48.7516 43.6757 48.0244 43.6757Z" fill="white"/>
<path fill-rule="evenodd" clip-rule="evenodd" d="M65.2092 56.4382C62.9895 59.6587 59.6873 61.7014 55.9991 61.7014C52.311 61.7014 49.0088 59.6587 46.7891 56.4382C49.0088 53.2177 52.311 51.175 55.9991 51.175C59.6872 51.175 62.9895 53.2177 65.2092 56.4382ZM55.9991 58.9069C54.8976 58.9069 54.0047 57.8017 54.0047 56.4383C54.0047 56.2546 53.8844 56.1058 53.736 56.1058C53.5877 56.1058 53.4674 56.2546 53.4674 56.4383C53.4674 58.1689 54.601 59.572 55.9991 59.572C56.1475 59.572 56.2678 59.4231 56.2678 59.2395C56.2678 59.0558 56.1475 58.9069 55.9991 58.9069ZM57.4308 53.6875C57.1058 53.6875 56.8423 54.0136 56.8423 54.4159C56.8423 54.8182 57.1058 55.1443 57.4308 55.1443C57.7558 55.1443 58.0192 54.8182 58.0192 54.4159C58.0193 54.0136 57.7558 53.6875 57.4308 53.6875ZM55.9991 51.8349C53.9453 51.8349 52.2801 53.896 52.2801 56.4382C52.2801 58.9805 53.9453 61.0415 55.9991 61.0415C58.053 61.0415 59.7181 58.9805 59.7181 56.4382C59.7181 53.896 58.053 51.8349 55.9991 51.8349ZM55.9991 52.5C54.2419 52.5 52.8174 54.2631 52.8174 56.4383C52.8174 58.6134 54.2419 60.3765 55.9991 60.3765C57.7564 60.3765 59.1808 58.6133 59.1808 56.4383C59.1808 54.2631 57.7564 52.5 55.9991 52.5Z" fill="white"/>
</svg>
