<svg width="57" height="57" viewBox="0 0 57 57" fill="none" xmlns="http://www.w3.org/2000/svg">
<path d="M40.0528 45.5534H16.947C13.9141 45.5534 11.4471 43.0854 11.4471 40.0535V16.9488C11.4471 13.9168 13.9141 11.4488 16.947 11.4488H40.0528C43.0857 11.4488 45.5527 13.9168 45.5527 16.9488V40.0535C45.5527 43.0854 43.0857 45.5534 40.0528 45.5534ZM16.947 14.4488C15.5691 14.4488 14.4471 15.5698 14.4471 16.9488V40.0535C14.4471 41.4324 15.5691 42.5534 16.947 42.5534H40.0528C41.4307 42.5534 42.5527 41.4324 42.5527 40.0535V16.9488C42.5527 15.5698 41.4307 14.4488 40.0528 14.4488H16.947Z" fill="#CD6028"/>
<path d="M28.5055 14.4477C27.6765 14.4477 27.0055 13.7757 27.0055 12.9477V7.20279C27.0055 6.3748 27.6765 5.70281 28.5055 5.70281C29.3345 5.70281 30.0055 6.3748 30.0055 7.20279V12.9477C30.0055 13.7757 29.3345 14.4477 28.5055 14.4477Z" fill="#CD6028"/>
<path d="M28.5059 8.70289C26.1069 8.70289 24.155 6.75091 24.155 4.35094C24.155 1.95097 26.1069 0 28.5059 0C30.9049 0 32.8568 1.95197 32.8568 4.35094C32.8568 6.74991 30.9049 8.70289 28.5059 8.70289ZM28.5059 3.00096C27.7609 3.00096 27.1549 3.60595 27.1549 4.35194C27.1549 5.09793 27.7609 5.70393 28.5059 5.70393C29.2509 5.70393 29.8569 5.09793 29.8569 4.35194C29.8569 3.60595 29.2509 3.00096 28.5059 3.00096Z" fill="#CD6028"/>
<path d="M12.947 29.9947H7.20206C6.37307 29.9947 5.70208 29.3227 5.70208 28.4948C5.70208 27.6668 6.37307 26.9948 7.20206 26.9948H12.947C13.776 26.9948 14.447 27.6668 14.447 28.4948C14.447 29.3227 13.776 29.9947 12.947 29.9947Z" fill="#CD6028"/>
<path d="M4.35094 32.8456C1.95197 32.8456 0 30.8937 0 28.4947C0 26.0957 1.95197 24.1428 4.35094 24.1428C6.74991 24.1428 8.70189 26.0947 8.70189 28.4947C8.70189 30.8947 6.74991 32.8456 4.35094 32.8456ZM4.35094 27.1437C3.60595 27.1437 2.99996 27.7497 2.99996 28.4957C2.99996 29.2417 3.60595 29.8467 4.35094 29.8467C5.09593 29.8467 5.70193 29.2417 5.70193 28.4957C5.70193 27.7497 5.09593 27.1437 4.35094 27.1437Z" fill="#CD6028"/>
<path d="M49.7971 30.0067H44.0522C43.2232 30.0067 42.5522 29.3347 42.5522 28.5067C42.5522 27.6787 43.2232 27.0067 44.0522 27.0067H49.7971C50.6261 27.0067 51.2971 27.6787 51.2971 28.5067C51.2971 29.3347 50.6261 30.0067 49.7971 30.0067Z" fill="#CD6028"/>
<path d="M52.6482 32.8576C50.2492 32.8576 48.2972 30.9056 48.2972 28.5057C48.2972 26.1057 50.2492 24.1547 52.6482 24.1547C55.0471 24.1547 56.9991 26.1067 56.9991 28.5057C56.9991 30.9046 55.0471 32.8576 52.6482 32.8576ZM52.6482 27.1557C51.9032 27.1557 51.2972 27.7607 51.2972 28.5067C51.2972 29.2527 51.9032 29.8586 52.6482 29.8586C53.3932 29.8586 53.9992 29.2527 53.9992 28.5067C53.9992 27.7607 53.3932 27.1557 52.6482 27.1557Z" fill="#CD6028"/>
<path d="M28.4928 51.2983C27.6638 51.2983 26.9928 50.6263 26.9928 49.7983V44.0534C26.9928 43.2254 27.6638 42.5534 28.4928 42.5534C29.3218 42.5534 29.9928 43.2254 29.9928 44.0534V49.7983C29.9928 50.6263 29.3218 51.2983 28.4928 51.2983Z" fill="#CD6028"/>
<path d="M28.4932 57.0001C26.0942 57.0001 24.1423 55.0481 24.1423 52.6492C24.1423 50.2502 26.0942 48.2972 28.4932 48.2972C30.8922 48.2972 32.8442 50.2492 32.8442 52.6492C32.8442 55.0491 30.8922 57.0001 28.4932 57.0001ZM28.4932 51.2982C27.7482 51.2982 27.1422 51.9042 27.1422 52.6502C27.1422 53.3962 27.7482 54.0012 28.4932 54.0012C29.2382 54.0012 29.8442 53.3962 29.8442 52.6502C29.8442 51.9042 29.2382 51.2982 28.4932 51.2982Z" fill="#CD6028"/>
<path d="M37.5894 14.4508C36.7604 14.4508 36.0894 13.7788 36.0894 12.9508V4.50092C36.0894 3.67293 36.7604 3.00094 37.5894 3.00094H41.7653C42.5943 3.00094 43.2653 3.67293 43.2653 4.50092C43.2653 5.32891 42.5943 6.0009 41.7653 6.0009H39.0893V12.9508C39.0893 13.7788 38.4184 14.4508 37.5894 14.4508Z" fill="#CD6028"/>
<path d="M52.4991 20.9107H44.0492C43.2202 20.9107 42.5493 20.2387 42.5493 19.4107C42.5493 18.5827 43.2202 17.9107 44.0492 17.9107H50.9992V15.2417C50.9992 14.4138 51.6701 13.7418 52.4991 13.7418C53.3281 13.7418 53.9991 14.4138 53.9991 15.2417V19.4107C53.9991 20.2387 53.3281 20.9107 52.4991 20.9107Z" fill="#CD6028"/>
<path d="M52.4991 43.2665C51.6701 43.2665 50.9992 42.5945 50.9992 41.7665V39.0906H44.0492C43.2202 39.0906 42.5493 38.4186 42.5493 37.5906C42.5493 36.7626 43.2202 36.0906 44.0492 36.0906H52.4991C53.3281 36.0906 53.9991 36.7626 53.9991 37.5906V41.7665C53.9991 42.5945 53.3281 43.2665 52.4991 43.2665Z" fill="#CD6028"/>
<path d="M41.7573 54.0003H37.5894C36.7604 54.0003 36.0894 53.3283 36.0894 52.5004V44.0505C36.0894 43.2225 36.7604 42.5505 37.5894 42.5505C38.4184 42.5505 39.0893 43.2225 39.0893 44.0505V51.0004H41.7573C42.5863 51.0004 43.2573 51.6724 43.2573 52.5004C43.2573 53.3283 42.5863 54.0003 41.7573 54.0003Z" fill="#CD6028"/>
<path d="M19.4101 54.0003H15.2342C14.4052 54.0003 13.7342 53.3283 13.7342 52.5004C13.7342 51.6724 14.4052 51.0004 15.2342 51.0004H17.9101V44.0505C17.9101 43.2225 18.5811 42.5505 19.4101 42.5505C20.2391 42.5505 20.9101 43.2225 20.9101 44.0505V52.5004C20.9101 53.3283 20.2391 54.0003 19.4101 54.0003Z" fill="#CD6028"/>
<path d="M4.49994 43.2595C3.67095 43.2595 2.99996 42.5875 2.99996 41.7595V37.5906C2.99996 36.7626 3.67095 36.0906 4.49994 36.0906H12.9498C13.7788 36.0906 14.4498 36.7626 14.4498 37.5906C14.4498 38.4186 13.7788 39.0906 12.9498 39.0906H5.99992V41.7595C5.99992 42.5875 5.32893 43.2595 4.49994 43.2595Z" fill="#CD6028"/>
<path d="M12.9498 20.9106H4.49994C3.67095 20.9106 2.99996 20.2386 2.99996 19.4106V15.2347C2.99996 14.4067 3.67095 13.7347 4.49994 13.7347C5.32893 13.7347 5.99992 14.4067 5.99992 15.2347V17.9106H12.9498C13.7788 17.9106 14.4498 18.5826 14.4498 19.4106C14.4498 20.2386 13.7788 20.9106 12.9498 20.9106Z" fill="#CD6028"/>
<path d="M19.4099 14.4508C18.5809 14.4508 17.91 13.7788 17.91 12.9508V6.0009H15.242C14.413 6.0009 13.742 5.32891 13.742 4.50092C13.742 3.67293 14.413 3.00094 15.242 3.00094H19.4099C20.2389 3.00094 20.9099 3.67293 20.9099 4.50092V12.9508C20.9099 13.7788 20.2389 14.4508 19.4099 14.4508Z" fill="#CD6028"/>
<path d="M29.0253 18.2585C28.7853 18.0901 28.4986 17.9998 28.2046 17.9998C27.9107 17.9998 27.624 18.0901 27.3839 18.2585C25.8414 19.3415 22.7685 21.168 19.5166 21.2326C19.1418 21.2428 18.7859 21.3986 18.5257 21.6664C18.2654 21.9343 18.1214 22.2929 18.1248 22.665C18.1741 27.4458 19.2059 34.2957 27.556 38.5638C27.7568 38.6661 27.9793 38.7195 28.2051 38.7195C28.4309 38.7195 28.6534 38.6661 28.8543 38.5638C37.2033 34.2961 38.2358 27.4461 38.2845 22.6647C38.2878 22.2925 38.1437 21.9339 37.8833 21.6661C37.6229 21.3983 37.2669 21.2426 36.892 21.2326C33.642 21.168 30.5678 19.3415 29.0253 18.2585ZM33.0096 27.0409L28.3073 31.4632C28.0463 31.7087 27.699 31.8433 27.3394 31.8385C26.9798 31.8337 26.6363 31.6897 26.382 31.4374L24.0926 29.1634C23.8463 28.9043 23.7114 28.5602 23.7165 28.204C23.7216 27.8478 23.8664 27.5076 24.1201 27.2556C24.3738 27.0036 24.7164 26.8596 25.0753 26.8542C25.4342 26.8487 25.7811 26.9823 26.0424 27.2265L27.3836 28.5575L31.1109 25.0522C31.2416 24.924 31.3967 24.8229 31.5672 24.755C31.7377 24.687 31.9202 24.6535 32.1039 24.6565C32.2876 24.6594 32.4689 24.6987 32.6371 24.7721C32.8053 24.8455 32.9571 24.9515 33.0835 25.0838C33.2099 25.2162 33.3084 25.3723 33.3732 25.5429C33.438 25.7135 33.4679 25.8953 33.461 26.0775C33.4541 26.2597 33.4106 26.4387 33.3331 26.6041C33.2556 26.7694 33.1456 26.9177 33.0096 27.0403V27.0409Z" fill="#3E6EB4"/>
</svg>
