<svg width="180" height="50" viewBox="0 0 180 50" fill="none" xmlns="http://www.w3.org/2000/svg">
<path d="M72.8269 28.0987L70.3258 21.7014H62.2612L59.7828 28.0987H57.4179L65.3747 7.89738H67.337L75.2485 28.0987H72.8269ZM69.5942 19.5973L67.2576 13.3645C66.9514 12.5762 66.6451 11.6121 66.3218 10.4608C66.1177 11.3399 65.8284 12.3097 65.4541 13.3645L63.0892 19.5973H69.5942Z" fill="black"/>
<path d="M92.7777 28.0987L90.271 21.7014H82.2121L79.7337 28.0987H77.3687L85.3199 7.89738H87.2879L95.1994 28.0987H92.7777ZM89.5451 19.5973L87.2085 13.3645C86.9079 12.5762 86.596 11.6121 86.2727 10.4608C86.0686 11.3399 85.7793 12.3097 85.405 13.3645L83.0401 19.5973H89.5451Z" fill="black"/>
<path d="M114.311 17.8514C114.311 21.1692 113.409 23.7099 111.605 25.4681C109.802 27.2205 107.21 28.0996 103.824 28.0996H98.2494V7.98333H104.414C107.545 7.98333 109.972 8.85104 111.707 10.5865C113.443 12.3219 114.311 14.7436 114.311 17.8514ZM111.832 17.9308C111.832 15.305 111.169 13.3314 109.859 12.0043C108.543 10.6772 106.586 10.008 103.989 10.008H100.592V26.0806H103.444C106.235 26.0806 108.327 25.3943 109.734 24.0219C111.14 22.6494 111.838 20.6191 111.838 17.9308" fill="black"/>
<path d="M120.935 19.7343V28.0996H118.599V7.98333H124.117C126.584 7.98333 128.41 8.45405 129.584 9.40116C130.764 10.3483 131.354 11.7661 131.354 13.666C131.354 16.3259 130.004 18.1237 127.31 19.0594L132.771 28.0996H130.004L125.138 19.7343H120.941H120.935ZM120.935 17.7267H124.145C125.796 17.7267 127.009 17.3977 127.781 16.7455C128.552 16.0877 128.938 15.1065 128.938 13.7964C128.938 12.4864 128.546 11.5109 127.764 10.9211C126.975 10.3369 125.722 10.042 123.986 10.042H120.947V17.7324L120.935 17.7267Z" fill="black"/>
<path d="M140.72 7.98333H138.378V28.0996H140.72V7.98333Z" fill="black"/>
<path d="M148.132 28.0996V7.98333H150.469V25.9841H159.345V28.0996H148.132Z" fill="black"/>
<path d="M177.121 28.0987L174.62 21.7014H166.555L164.077 28.0987H161.712L169.669 7.89738H171.631L179.542 28.0987H177.121ZM173.888 19.5973L171.551 13.3645C171.245 12.5762 170.939 11.6121 170.616 10.4608C170.411 11.3399 170.122 12.3097 169.748 13.3645L167.383 19.5973H173.888Z" fill="black"/>
<path d="M60.8123 43.0481H59.576V36.509H57.3358V35.4485H63.0525V36.509H60.8123V43.0481Z" fill="black"/>
<path d="M72.3465 43.0481H68.0476V35.4485H72.3465V36.4977H69.2897V38.5677H72.1537V39.6056H69.2897V41.9932H72.3465V43.0481Z" fill="black"/>
<path d="M81.0499 36.4017C80.3353 36.4017 79.7739 36.6569 79.3655 37.1616C78.9572 37.6664 78.753 38.3639 78.753 39.26C78.753 40.1561 78.9459 40.899 79.3428 41.3754C79.7342 41.8518 80.3013 42.09 81.0499 42.09C81.3675 42.09 81.6851 42.0617 81.9857 41.9936C82.2863 41.9312 82.5982 41.8461 82.9271 41.7497V42.8103C82.3316 43.0371 81.6567 43.1505 80.9025 43.1505C79.7909 43.1505 78.9402 42.8103 78.339 42.1411C77.7435 41.4662 77.443 40.502 77.443 39.2487C77.443 38.4547 77.5847 37.7685 77.8796 37.173C78.1689 36.5831 78.5829 36.1294 79.133 35.8118C79.6831 35.4943 80.324 35.3355 81.0613 35.3355C81.8382 35.3355 82.5528 35.4942 83.2107 35.8232L82.7627 36.861C82.5018 36.7363 82.2296 36.6342 81.946 36.5434C81.6568 36.4527 81.3618 36.4073 81.0442 36.4073" fill="black"/>
<path d="M94.3877 43.0481H93.14V39.6226H89.6351V43.0481H88.3931V35.4485H89.6351V38.5564H93.14V35.4485H94.3877V43.0481Z" fill="black"/>
<path d="M106.553 43.0481H105.028L101.29 36.9911H101.25L101.273 37.3314C101.324 37.9722 101.347 38.5621 101.347 39.0952V43.0481H100.218V35.4485H101.727L105.453 41.4715H105.487C105.481 41.3921 105.464 41.1028 105.442 40.5981C105.425 40.099 105.413 39.7077 105.413 39.4298V35.4485H106.553V43.0481Z" fill="black"/>
<path d="M119.132 39.2369C119.132 40.4733 118.82 41.4374 118.201 42.1236C117.589 42.8098 116.71 43.1558 115.576 43.1558C114.441 43.1558 113.551 42.8155 112.933 42.135C112.315 41.4544 112.008 40.4846 112.008 39.2312C112.008 37.9779 112.315 37.0137 112.938 36.3388C113.557 35.664 114.441 35.3293 115.587 35.3293C116.733 35.3293 117.589 35.6696 118.207 36.3559C118.825 37.0421 119.137 38.0005 119.137 39.2426M113.324 39.2369C113.324 40.1727 113.511 40.8816 113.891 41.3636C114.266 41.8457 114.827 42.0896 115.57 42.0896C116.313 42.0896 116.869 41.8514 117.243 41.375C117.617 40.8986 117.81 40.184 117.81 39.2369C117.81 38.2898 117.623 37.5979 117.249 37.1158C116.88 36.6338 116.324 36.3956 115.581 36.3956C114.838 36.3956 114.277 36.6338 113.897 37.1158C113.517 37.5979 113.324 38.3068 113.324 39.2369Z" fill="black"/>
<path d="M124.587 43.0481V35.4485H125.824V41.9819H129.045V43.0481H124.587Z" fill="black"/>
<path d="M140.938 39.2369C140.938 40.4733 140.632 41.4374 140.008 42.1236C139.39 42.8098 138.511 43.1558 137.382 43.1558C136.253 43.1558 135.352 42.8155 134.739 42.135C134.127 41.4544 133.815 40.4846 133.815 39.2312C133.815 37.9779 134.127 37.0137 134.745 36.3388C135.357 35.664 136.248 35.3293 137.393 35.3293C138.539 35.3293 139.395 35.6696 140.014 36.3559C140.632 37.0421 140.944 38.0005 140.944 39.2426M135.136 39.2369C135.136 40.1727 135.323 40.8816 135.703 41.3636C136.083 41.8457 136.645 42.0896 137.382 42.0896C138.119 42.0896 138.681 41.8514 139.055 41.375C139.429 40.8986 139.617 40.184 139.617 39.2369C139.617 38.2898 139.429 37.5979 139.061 37.1158C138.686 36.6338 138.131 36.3956 137.393 36.3956C136.656 36.3956 136.089 36.6338 135.709 37.1158C135.329 37.5979 135.136 38.3068 135.136 39.2369Z" fill="black"/>
<path d="M149.501 38.9253H152.297V42.7421C151.838 42.8952 151.395 42.9973 150.976 43.0597C150.556 43.1221 150.102 43.1561 149.615 43.1561C148.463 43.1561 147.573 42.8158 146.955 42.1353C146.331 41.4547 146.019 40.4906 146.019 39.2542C146.019 38.0179 146.365 37.0708 147.074 36.3845C147.777 35.6926 148.747 35.3467 149.978 35.3467C150.772 35.3467 151.52 35.4998 152.235 35.8061L151.798 36.8439C151.186 36.5603 150.567 36.4186 149.949 36.4186C149.138 36.4186 148.497 36.6738 148.027 37.1842C147.55 37.6946 147.318 38.3922 147.318 39.2769C147.318 40.207 147.528 40.9159 147.953 41.398C148.378 41.8801 148.991 42.1239 149.785 42.1239C150.187 42.1239 150.618 42.0729 151.072 41.9765V40.0142H149.501V38.948V38.9253Z" fill="black"/>
<path d="M159.184 35.4485H157.942V43.0481H159.184V35.4485Z" fill="black"/>
<path d="M169.312 43.0481H165.013V35.4485H169.312V36.4977H166.255V38.5677H169.119V39.6056H166.255V41.9932H169.312V43.0481Z" fill="black"/>
<path d="M179.163 40.984C179.163 41.6589 178.919 42.192 178.431 42.5777C177.944 42.9633 177.269 43.1562 176.412 43.1562C175.556 43.1562 174.847 43.0201 174.303 42.7535V41.5795C174.649 41.744 175.017 41.8688 175.408 41.9652C175.8 42.0559 176.157 42.107 176.497 42.107C176.991 42.107 177.354 42.0106 177.586 41.8234C177.824 41.6362 177.938 41.381 177.938 41.0691C177.938 40.7855 177.83 40.5474 177.62 40.3489C177.405 40.1504 176.957 39.9178 176.288 39.6456C175.596 39.362 175.108 39.0445 174.824 38.6872C174.535 38.3242 174.399 37.8932 174.399 37.3884C174.399 36.7532 174.626 36.2542 175.074 35.8912C175.528 35.5282 176.134 35.3411 176.889 35.3411C177.643 35.3411 178.346 35.4999 179.066 35.8175L178.669 36.8326C177.995 36.5491 177.388 36.4073 176.86 36.4073C176.458 36.4073 176.151 36.498 175.942 36.6738C175.737 36.8496 175.63 37.0822 175.63 37.3657C175.63 37.5642 175.669 37.7344 175.754 37.8705C175.834 38.0123 175.976 38.1484 176.163 38.2675C176.35 38.3922 176.696 38.5567 177.195 38.7666C177.751 38.9991 178.159 39.2146 178.42 39.4188C178.681 39.6173 178.874 39.8441 178.993 40.0993C179.118 40.3545 179.174 40.6494 179.174 40.9954" fill="black"/>
<g opacity="0.58">
<mask id="mask0_0_1351" style="mask-type:luminance" maskUnits="userSpaceOnUse" x="-1" y="4" width="47" height="47">
<path d="M45.8971 4.1041H-0.000976644V50.0022H45.8971V4.1041Z" fill="white"/>
</mask>
<g mask="url(#mask0_0_1351)">
<mask id="mask1_0_1351" style="mask-type:luminance" maskUnits="userSpaceOnUse" x="-1" y="4" width="47" height="47">
<path d="M45.8971 4.1041H-0.000976644V50.0022H45.8971V4.1041Z" fill="white"/>
</mask>
<g mask="url(#mask1_0_1351)">
<path d="M45.8176 25.172C46.8555 37.8021 37.4581 48.8839 24.828 49.9217C12.198 50.9596 1.11618 41.5622 0.0783254 28.9321C-0.959529 16.3021 8.43787 5.22028 21.0679 4.18243C33.698 3.14457 44.7798 12.542 45.8176 25.172Z" fill="#B7C5E5"/>
</g>
</g>
</g>
<g opacity="0.31">
<mask id="mask2_0_1351" style="mask-type:luminance" maskUnits="userSpaceOnUse" x="35" y="6" width="18" height="18">
<path d="M52.323 6.64533H35.2637V23.7047H52.323V6.64533Z" fill="white"/>
</mask>
<g mask="url(#mask2_0_1351)">
<mask id="mask3_0_1351" style="mask-type:luminance" maskUnits="userSpaceOnUse" x="35" y="6" width="18" height="18">
<path d="M52.323 6.64533H35.2637V23.7047H52.323V6.64533Z" fill="white"/>
</mask>
<g mask="url(#mask3_0_1351)">
<path d="M52.2886 14.4782C52.6742 19.174 49.1807 23.2914 44.4848 23.6771C39.789 24.0627 35.6716 20.5692 35.2859 15.8733C34.9003 11.1775 38.3938 7.06007 43.0897 6.67442C47.7855 6.28877 51.9029 9.78231 52.2886 14.4782Z" fill="#EE6727"/>
</g>
</g>
</g>
<g opacity="0.58">
<mask id="mask4_0_1351" style="mask-type:luminance" maskUnits="userSpaceOnUse" x="35" y="-1" width="7" height="7">
<path d="M41.1777 -0.00170913H35.7559V5.42009H41.1777V-0.00170913Z" fill="white"/>
</mask>
<g mask="url(#mask4_0_1351)">
<mask id="mask5_0_1351" style="mask-type:luminance" maskUnits="userSpaceOnUse" x="35" y="-1" width="7" height="7">
<path d="M41.1777 -0.00170913H35.7559V5.42009H41.1777V-0.00170913Z" fill="white"/>
</mask>
<g mask="url(#mask5_0_1351)">
<path d="M41.1665 2.48793C41.2913 3.97949 40.1797 5.28957 38.6881 5.41434C37.1966 5.53344 35.8865 4.42753 35.7674 2.93029C35.6426 1.43873 36.7542 0.128655 38.2458 0.00955656C39.7373 -0.115213 41.0474 0.996369 41.1665 2.48793Z" fill="#719AD0"/>
</g>
</g>
</g>
<path d="M24.6537 22.3942C24.3078 20.9594 23.4231 19.7401 22.164 18.9687C20.8993 18.1974 19.4191 17.9593 17.9786 18.3052C16.5437 18.6512 15.3244 19.5302 14.5531 20.7949C13.7818 22.0596 13.5436 23.5455 13.8896 24.9804C14.2355 26.4152 15.1202 27.6345 16.3849 28.4115C17.4001 29.0354 18.5627 29.3076 19.7254 29.2112C20.0089 29.1828 20.2868 29.1431 20.5704 29.0751C22.0052 28.7291 23.2246 27.8501 23.9959 26.5854C24.7672 25.3206 25.0054 23.8348 24.6594 22.3999M17.1222 27.1865C16.1864 26.6137 15.5286 25.712 15.2734 24.6458C15.0181 23.5852 15.194 22.4793 15.7724 21.5435C16.3452 20.6078 17.247 19.9499 18.3132 19.6947C18.523 19.6436 18.7329 19.6096 18.9427 19.5926C19.8048 19.5189 20.6668 19.723 21.4211 20.1881C22.3569 20.7609 23.0147 21.6626 23.2699 22.7288C23.5251 23.7894 23.3493 24.8953 22.7765 25.8311C22.2037 26.7668 21.2963 27.4247 20.2358 27.6799C19.1696 27.9351 18.0693 27.7593 17.1336 27.1865" fill="#403644"/>
<path d="M22.7784 2.10861C22.3644 2.21636 22.0241 2.47724 21.8086 2.84588C21.5931 3.21452 21.5307 3.63987 21.6385 4.05387C21.7462 4.46221 22.0128 4.80816 22.3758 5.02367C22.7444 5.23918 23.1754 5.30157 23.5838 5.19381C23.9978 5.08606 24.338 4.8195 24.5536 4.45654C24.7691 4.0879 24.8315 3.65688 24.7237 3.24854C24.5025 2.39784 23.6291 1.88175 22.7784 2.10861Z" fill="white"/>
<path d="M46.8192 29.8858H46.8022C46.4279 29.9141 46.1103 30.1183 45.9288 30.4359C45.7417 30.7592 45.7247 31.1391 45.8891 31.4851C46.0763 31.8764 46.513 32.1316 46.9497 32.1033C47.3467 32.0862 47.6529 31.8764 47.8457 31.5531C48.0329 31.2299 48.0499 30.8499 47.8854 30.5039C47.6983 30.107 47.2616 29.8574 46.8249 29.8858" fill="white"/>
<path d="M50.6328 13.945C50.4287 13.1113 49.9182 12.4024 49.1866 11.9544C48.455 11.5063 47.593 11.3702 46.7536 11.5687C45.0295 11.9827 43.9633 13.7182 44.3773 15.4422C44.5078 15.9754 44.763 16.4574 45.126 16.8544L38.1729 27.3124C37.4186 27.0571 36.5849 27.0004 35.7569 27.2046C34.617 27.4768 33.6415 28.1857 33.029 29.1896C33.0063 29.2236 32.9893 29.2633 32.9723 29.2973L20.1664 22.9965L23.28 5.85769C23.3083 5.85769 23.3367 5.85769 23.3707 5.85769C23.4955 5.84635 23.6259 5.82934 23.7507 5.79531C24.3235 5.64786 24.7999 5.28489 25.1005 4.77447C25.4011 4.26405 25.4805 3.66856 25.333 3.10143C25.0267 1.92746 23.8187 1.21854 22.6391 1.5248C22.072 1.67225 21.5899 2.03522 21.295 2.54564C20.9944 3.05038 20.915 3.64587 21.0625 4.21868C21.2099 4.79148 21.5729 5.26788 22.0833 5.56279C22.2081 5.64218 22.3442 5.69323 22.4803 5.74427L19.2817 23.3538L18.6522 22.9057L7.111 39.2619C6.47581 39.0577 5.79525 39.0237 5.12603 39.1825C4.16758 39.4093 3.36225 39.9991 2.84049 40.8385C2.3244 41.6778 2.17127 42.6703 2.39812 43.6231C2.62498 44.5816 3.21479 45.3926 4.05415 45.9087C4.72904 46.3227 5.50034 46.5041 6.27731 46.4418C6.46447 46.4247 6.65162 46.3964 6.83878 46.351C7.79723 46.1242 8.60823 45.5287 9.12432 44.6893C9.64042 43.85 9.79354 42.8575 9.56669 41.9047C9.39655 41.2014 9.03358 40.5776 8.51749 40.0899L19.2874 24.8226L25.0778 38.4338C24.6411 38.8308 24.4256 39.4433 24.5844 40.0558C24.7885 40.8271 25.5202 41.3319 26.2915 41.2638C26.3822 41.2582 26.4786 41.2411 26.5693 41.2185C26.989 41.1107 27.3406 40.8442 27.5618 40.4642C27.783 40.0899 27.8454 39.6532 27.732 39.2278C27.6242 38.8081 27.3577 38.4565 26.9834 38.241C26.6261 38.0312 26.2121 37.9688 25.8094 38.0595L20.0587 24.5447L32.4675 30.6471C32.3428 31.2653 32.3484 31.9005 32.5016 32.53C32.7738 33.6756 33.4827 34.6454 34.4865 35.2636C35.2919 35.7626 36.2163 35.9782 37.1464 35.9044C37.3732 35.8817 37.6001 35.8477 37.8213 35.7967C39.7098 35.343 41.0256 33.7266 41.19 31.8891L45.2564 31.5375C45.2791 31.6169 45.3074 31.6906 45.3415 31.7643C45.6364 32.3882 46.3056 32.7795 46.9975 32.7285H47.0258C47.593 32.6831 48.0977 32.3655 48.3813 31.8778C48.6705 31.3844 48.6932 30.7775 48.4494 30.2558C48.1488 29.6263 47.4852 29.2406 46.7933 29.286C46.2092 29.3257 45.6988 29.6433 45.4095 30.1367C45.3018 30.3182 45.2337 30.511 45.1997 30.7152L41.1844 31.0611C41.1617 30.8683 41.1333 30.6698 41.088 30.4713C40.8384 29.4391 40.2486 28.5827 39.4603 27.9872L46.3113 17.6824C46.7763 17.8696 47.2754 17.949 47.7745 17.9093C47.9389 17.8979 48.1034 17.8696 48.2679 17.8299C49.992 17.4159 51.0582 15.6804 50.6498 13.9564M21.641 4.05421C21.5332 3.64587 21.5956 3.21485 21.8111 2.84622C22.0266 2.47758 22.3669 2.2167 22.7809 2.10894C23.6316 1.88209 24.505 2.39818 24.7262 3.24888C24.8339 3.66289 24.7772 4.09391 24.556 4.45688C24.3405 4.82551 24.0002 5.08639 23.5862 5.19415C23.1779 5.3019 22.7469 5.24519 22.3782 5.02968C22.0096 4.81417 21.7487 4.46822 21.641 4.05421ZM7.89364 43.9407C7.57605 44.4568 7.08264 44.8141 6.4985 44.9559C5.91435 45.092 5.30752 44.9956 4.7971 44.6836C4.28668 44.3717 3.92371 43.8726 3.78193 43.2885C3.64582 42.7044 3.74223 42.0975 4.05415 41.5871C4.37175 41.071 4.86515 40.7137 5.4493 40.5719C5.56273 40.5436 5.68182 40.5266 5.79525 40.5152C6.27164 40.4755 6.74236 40.5889 7.1507 40.8442C7.66679 41.1617 8.02409 41.6552 8.16587 42.2393C8.30765 42.8235 8.21124 43.4303 7.89364 43.9407ZM45.9256 30.4373C46.1128 30.1197 46.4304 29.9212 46.799 29.8928C46.8047 29.8928 46.8103 29.8928 46.8217 29.8928C47.2584 29.8645 47.6951 30.1197 47.8822 30.5167C48.0467 30.8569 48.0297 31.2369 47.8425 31.5602C47.6554 31.8834 47.3434 32.0933 46.9465 32.1103C46.5098 32.1387 46.0731 31.8834 45.8859 31.4921C45.7214 31.1462 45.7385 30.7662 45.9256 30.4429M36.0858 28.5997C36.239 28.56 36.3921 28.5374 36.5396 28.526C36.8118 28.5033 37.0783 28.526 37.3392 28.5714L35.893 30.7435L34.2483 29.9382C34.668 29.2633 35.3202 28.7869 36.0858 28.6054M39.6815 30.8002C39.7098 30.9307 39.7325 31.0554 39.7439 31.1802L37.532 31.373L37.6058 32.1897L39.7212 32.0082C39.5227 33.1425 38.672 34.1123 37.481 34.3958C36.7097 34.583 35.91 34.4526 35.2295 34.0386C34.5489 33.6189 34.0725 32.9667 33.8854 32.1954C33.8173 31.9061 33.789 31.6056 33.8116 31.3163L36.3921 32.5867L38.6493 29.1896C39.1484 29.5866 39.5227 30.148 39.6815 30.8116M47.9219 16.4291C47.4569 16.5368 46.9805 16.4631 46.5721 16.2136C46.1638 15.964 45.8802 15.5727 45.7668 15.1076C45.5343 14.1492 46.1298 13.1851 47.0882 12.9582C47.5476 12.8505 48.0297 12.9242 48.438 13.1737C48.8407 13.4233 49.1299 13.8146 49.2377 14.2796C49.4645 15.2381 48.8747 16.2022 47.9163 16.4291" fill="#403644"/>
<path d="M7.15185 21.5376C7.50347 21.7417 7.89479 21.8268 8.29179 21.7984C8.40521 21.7871 8.51864 21.7701 8.62639 21.7417C9.12547 21.6113 9.52247 21.2994 9.772 20.8967L13.9971 22.3712L14.2637 21.5999L10.0556 20.1311C10.0896 19.8872 10.0783 19.6263 10.0102 19.3711C9.73798 18.3332 8.67744 17.7151 7.63958 17.9816C7.14051 18.1121 6.72083 18.4353 6.45427 18.8834C6.19339 19.3314 6.11967 19.8532 6.25011 20.3579C6.38055 20.857 6.70381 21.2767 7.14618 21.5432M6.98738 19.1896C7.16886 18.8834 7.45243 18.6622 7.79838 18.5771C7.87778 18.5544 7.95151 18.5431 8.02523 18.5374C8.65475 18.4864 9.25591 18.889 9.42038 19.5242C9.60754 20.2331 9.18219 20.9591 8.47327 21.1462C8.12732 21.237 7.77002 21.1859 7.46377 21.0044C7.15752 20.823 6.93634 20.5394 6.8456 20.1934C6.76053 19.8475 6.8059 19.4959 6.98738 19.1839" fill="#403644"/>
<path d="M21.415 20.1885C20.6607 19.7235 19.7986 19.525 18.9423 19.593C18.7324 19.61 18.5226 19.6441 18.3127 19.6951C17.2465 19.9503 16.3448 20.6082 15.772 21.544C15.1992 22.4797 15.0234 23.5856 15.2786 24.6462C15.5338 25.7124 16.186 26.6141 17.1274 27.1869C18.0632 27.7597 19.1691 27.9356 20.2297 27.6803C21.2959 27.4251 22.1976 26.7673 22.7704 25.8315C23.3432 24.8957 23.519 23.7898 23.2638 22.7293C23.0086 21.6631 22.3507 20.7613 21.415 20.1885Z" fill="white"/>
<path d="M20.0814 26.5411C21.641 26.1327 22.5767 24.5334 22.1684 22.9738C21.7601 21.4142 20.1608 20.4784 18.6011 20.8868C17.0415 21.2951 16.1057 22.8944 16.5141 24.454C16.9224 26.0136 18.5217 26.9494 20.0814 26.5411Z" fill="#CD6028"/>
<path d="M36.5395 28.5244C36.3864 28.5358 36.2389 28.5584 36.0858 28.5981C35.3145 28.7853 34.6566 29.2617 34.2426 29.9422C33.8229 30.6228 33.6982 31.4225 33.8797 32.1938C34.0668 32.9651 34.5432 33.6229 35.2238 34.0369C35.9043 34.451 36.704 34.5814 37.4753 34.3942C39.0746 34.0086 40.0614 32.3979 39.6814 30.7986C39.3355 29.3524 37.98 28.4053 36.5395 28.5244Z" fill="white"/>
<path d="M36.2655 29.4836C35.1993 29.7615 34.5584 30.8561 34.8363 31.9223C35.1142 32.9885 36.2088 33.6237 37.275 33.3515C38.3412 33.0736 38.982 31.979 38.7042 30.9128C38.4263 29.8466 37.3317 29.2114 36.2655 29.4836Z" fill="#3E6EB4"/>
<path d="M26.0878 38.5975C26.0878 38.5975 26.0765 38.5975 26.0708 38.5975C25.7135 38.6258 25.4073 38.8187 25.2315 39.1249C25.05 39.4368 25.033 39.8055 25.1918 40.1344C25.3733 40.5087 25.7929 40.7583 26.2126 40.7299C26.5926 40.7129 26.8932 40.5144 27.069 40.2025C27.2505 39.8905 27.2618 39.5219 27.1087 39.193C26.9272 38.813 26.5132 38.5691 26.0935 38.5975" fill="white"/>
<path d="M48.5119 13.0482C48.0696 12.7817 47.5535 12.6966 47.0544 12.8157C46.0165 13.0652 45.3813 14.1088 45.6252 15.141C45.7443 15.6457 46.0562 16.0654 46.4929 16.3376C46.9353 16.6042 47.4514 16.6892 47.9505 16.5701C48.9883 16.3206 49.6235 15.2771 49.3796 14.2392C49.2605 13.7401 48.9543 13.3148 48.5119 13.0426" fill="white"/>
<path d="M47.291 13.8135C46.792 13.9439 46.4971 14.4543 46.6275 14.9534C46.7579 15.4525 47.2684 15.7474 47.7674 15.617C48.2608 15.4865 48.5614 14.9761 48.431 14.477C48.3005 13.978 47.7901 13.683 47.291 13.8135Z" fill="#CD6028"/>
</svg>
